<?xml version="1.0" encoding="UTF-8" standalone="no"?>
<svg
   viewBox="0 -0.5 21 21"
   shape-rendering="crispEdges"
   version="1.1"
   id="svg10475"
   sodipodi:docname="maximize-nofocus.svg"
   inkscape:version="1.2 (dc2aedaf03, 2022-05-15)"
   xmlns:inkscape="http://www.inkscape.org/namespaces/inkscape"
   xmlns:sodipodi="http://sodipodi.sourceforge.net/DTD/sodipodi-0.dtd"
   xmlns="http://www.w3.org/2000/svg"
   xmlns:svg="http://www.w3.org/2000/svg">
  <defs
     id="defs10479" />
  <sodipodi:namedview
     id="namedview10477"
     pagecolor="#ffffff"
     bordercolor="#000000"
     borderopacity="0.25"
     inkscape:showpageshadow="2"
     inkscape:pageopacity="0.0"
     inkscape:pagecheckerboard="0"
     inkscape:deskcolor="#d1d1d1"
     showgrid="false"
     inkscape:zoom="39.857143"
     inkscape:cx="10.487455"
     inkscape:cy="10.487455"
     inkscape:window-width="1920"
     inkscape:window-height="1017"
     inkscape:window-x="-8"
     inkscape:window-y="-8"
     inkscape:window-maximized="1"
     inkscape:current-layer="svg10475" />
  <path
     stroke="#6696eb"
     d="M1 0h1"
     id="path9901"
     style="opacity:0.65" />
  <path
     stroke="#e5edfb"
     d="M2 0h1"
     id="path9903"
     style="opacity:0.65" />
  <path
     stroke="#ffffff"
     d="M3 0h16M0 2h1M0 3h1M20 3h1M0 4h1M20 4h1M0 5h1M5 5h11M20 5h1M0 6h1M5 6h11M20 6h1M0 7h1M5 7h11M20 7h1M0 8h1M5 8h1M15 8h1M20 8h1M0 9h1M5 9h1M15 9h1M20 9h1M0 10h1M5 10h1M15 10h1M20 10h1M0 11h1M5 11h1M15 11h1M20 11h1M0 12h1M5 12h1M15 12h1M20 12h1M0 13h1M5 13h1M15 13h1M20 13h1M0 14h1M5 14h1M15 14h1M20 14h1M0 15h1M5 15h11M20 15h1M0 16h1M20 16h1M0 17h1M20 17h1M20 18h1M2 20h16"
     id="path9905"
     style="opacity:0.65" />
  <path
     stroke="#6694eb"
     d="M19 0h1"
     id="path9907"
     style="opacity:0.65" />
  <path
     stroke="#6693e9"
     d="M0 1h1M20 1h1"
     id="path9909"
     style="opacity:0.65" />
  <path
     stroke="#dce5fd"
     d="M1 1h1"
     id="path9911"
     style="opacity:0.65" />
  <path
     stroke="#739af8"
     d="M2 1h1"
     id="path9913"
     style="opacity:0.65" />
  <path
     stroke="#608cf7"
     d="M3 1h1M2 8h1"
     id="path9915"
     style="opacity:0.65" />
  <path
     stroke="#5584f6"
     d="M4 1h1"
     id="path9917"
     style="opacity:0.65" />
  <path
     stroke="#4d7ef6"
     d="M5 1h1M1 6h1M7 10h1"
     id="path9919"
     style="opacity:0.65" />
  <path
     stroke="#487af5"
     d="M6 1h1"
     id="path9921"
     style="opacity:0.65" />
  <path
     stroke="#4276f5"
     d="M7 1h1M3 14h1"
     id="path9923"
     style="opacity:0.65" />
  <path
     stroke="#4478f5"
     d="M8 1h1M14 4h1M2 12h1"
     id="path9925"
     style="opacity:0.65" />
  <path
     stroke="#3e73f5"
     d="M9 1h2"
     id="path9927"
     style="opacity:0.65" />
  <path
     stroke="#3b71f5"
     d="M11 1h2"
     id="path9929"
     style="opacity:0.65" />
  <path
     stroke="#336cf4"
     d="M13 1h2"
     id="path9931"
     style="opacity:0.65" />
  <path
     stroke="#306af4"
     d="M15 1h1"
     id="path9933"
     style="opacity:0.65" />
  <path
     stroke="#2864f4"
     d="M16 1h1"
     id="path9935"
     style="opacity:0.65" />
  <path
     stroke="#1f5def"
     d="M17 1h1"
     id="path9937"
     style="opacity:0.65" />
  <path
     stroke="#3467e0"
     d="M18 1h1"
     id="path9939"
     style="opacity:0.65" />
  <path
     stroke="#d2dbf2"
     d="M19 1h1"
     id="path9941"
     style="opacity:0.65" />
  <path
     stroke="#769cf8"
     d="M1 2h1"
     id="path9943"
     style="opacity:0.65" />
  <path
     stroke="#90aff9"
     d="M2 2h1"
     id="path9945"
     style="opacity:0.65" />
  <path
     stroke="#94b2f9"
     d="M3 2h1"
     id="path9947"
     style="opacity:0.65" />
  <path
     stroke="#85a7f8"
     d="M4 2h1"
     id="path9949"
     style="opacity:0.65" />
  <path
     stroke="#759cf8"
     d="M5 2h1"
     id="path9951"
     style="opacity:0.65" />
  <path
     stroke="#6e97f8"
     d="M6 2h1M2 6h1"
     id="path9953"
     style="opacity:0.65" />
  <path
     stroke="#6892f7"
     d="M7 2h1"
     id="path9955"
     style="opacity:0.65" />
  <path
     stroke="#6690f7"
     d="M8 2h1"
     id="path9957"
     style="opacity:0.65" />
  <path
     stroke="#628ef7"
     d="M9 2h1M10 3h1"
     id="path9959"
     style="opacity:0.65" />
  <path
     stroke="#5f8cf7"
     d="M10 2h1"
     id="path9961"
     style="opacity:0.65" />
  <path
     stroke="#5e8bf7"
     d="M11 2h1"
     id="path9963"
     style="opacity:0.65" />
  <path
     stroke="#5988f6"
     d="M12 2h1"
     id="path9965"
     style="opacity:0.65" />
  <path
     stroke="#5685f6"
     d="M13 2h1"
     id="path9967"
     style="opacity:0.65" />
  <path
     stroke="#5082f6"
     d="M14 2h1"
     id="path9969"
     style="opacity:0.65" />
  <path
     stroke="#497cf5"
     d="M15 2h1"
     id="path9971"
     style="opacity:0.65" />
  <path
     stroke="#3f75f5"
     d="M16 2h1M15 4h1"
     id="path9973"
     style="opacity:0.65" />
  <path
     stroke="#326bf2"
     d="M17 2h1"
     id="path9975"
     style="opacity:0.65" />
  <path
     stroke="#235ce3"
     d="M18 2h1"
     id="path9977"
     style="opacity:0.65" />
  <path
     stroke="#305cc5"
     d="M19 2h1"
     id="path9979"
     style="opacity:0.65" />
  <path
     stroke="#e5ecfb"
     d="M20 2h1"
     id="path9981"
     style="opacity:0.65" />
  <path
     stroke="#6590f7"
     d="M1 3h1"
     id="path9983"
     style="opacity:0.65" />
  <path
     stroke="#97b4f9"
     d="M2 3h1"
     id="path9985"
     style="opacity:0.65" />
  <path
     stroke="#9ab7fa"
     d="M3 3h1"
     id="path9987"
     style="opacity:0.65" />
  <path
     stroke="#89aaf9"
     d="M4 3h1M2 4h1"
     id="path9989"
     style="opacity:0.65" />
  <path
     stroke="#7aa0f8"
     d="M5 3h1"
     id="path9991"
     style="opacity:0.65" />
  <path
     stroke="#729af8"
     d="M6 3h1"
     id="path9993"
     style="opacity:0.65" />
  <path
     stroke="#6d95f8"
     d="M7 3h1"
     id="path9995"
     style="opacity:0.65" />
  <path
     stroke="#6892f8"
     d="M8 3h1M2 7h1"
     id="path9997"
     style="opacity:0.65" />
  <path
     stroke="#658ff7"
     d="M9 3h1"
     id="path9999"
     style="opacity:0.65" />
  <path
     stroke="#618df7"
     d="M11 3h1"
     id="path10001"
     style="opacity:0.65" />
  <path
     stroke="#5d8af7"
     d="M12 3h1M3 9h1"
     id="path10003"
     style="opacity:0.65" />
  <path
     stroke="#5987f6"
     d="M13 3h1M2 9h1"
     id="path10005"
     style="opacity:0.65" />
  <path
     stroke="#5283f6"
     d="M14 3h1"
     id="path10007"
     style="opacity:0.65" />
  <path
     stroke="#4c7ef6"
     d="M15 3h1"
     id="path10009"
     style="opacity:0.65" />
  <path
     stroke="#4377f5"
     d="M16 3h1"
     id="path10011"
     style="opacity:0.65" />
  <path
     stroke="#376ef2"
     d="M17 3h1"
     id="path10013"
     style="opacity:0.65" />
  <path
     stroke="#285fe3"
     d="M18 3h1"
     id="path10015"
     style="opacity:0.65" />
  <path
     stroke="#1546b9"
     d="M19 3h1"
     id="path10017"
     style="opacity:0.65" />
  <path
     stroke="#5886f6"
     d="M1 4h1"
     id="path10019"
     style="opacity:0.65" />
  <path
     stroke="#8dadf9"
     d="M3 4h1"
     id="path10021"
     style="opacity:0.65" />
  <path
     stroke="#7fa3f8"
     d="M4 4h1"
     id="path10023"
     style="opacity:0.65" />
  <path
     stroke="#7199f8"
     d="M5 4h1M4 5h1"
     id="path10025"
     style="opacity:0.65" />
  <path
     stroke="#6a93f8"
     d="M6 4h1M4 6h1M3 7h1"
     id="path10027"
     style="opacity:0.65" />
  <path
     stroke="#648ef7"
     d="M7 4h1"
     id="path10029"
     style="opacity:0.65" />
  <path
     stroke="#5e8af7"
     d="M8 4h1"
     id="path10031"
     style="opacity:0.65" />
  <path
     stroke="#5986f7"
     d="M9 4h1M4 10h1"
     id="path10033"
     style="opacity:0.65" />
  <path
     stroke="#5482f6"
     d="M10 4h1"
     id="path10035"
     style="opacity:0.65" />
  <path
     stroke="#5180f6"
     d="M11 4h1"
     id="path10037"
     style="opacity:0.65" />
  <path
     stroke="#4b7cf5"
     d="M12 4h1"
     id="path10039"
     style="opacity:0.65" />
  <path
     stroke="#4a7cf5"
     d="M13 4h1"
     id="path10041"
     style="opacity:0.65" />
  <path
     stroke="#3a72f4"
     d="M16 4h1"
     id="path10043"
     style="opacity:0.65" />
  <path
     stroke="#346cf2"
     d="M17 4h1"
     id="path10045"
     style="opacity:0.65" />
  <path
     stroke="#2a61e3"
     d="M18 4h1"
     id="path10047"
     style="opacity:0.65" />
  <path
     stroke="#1848bb"
     d="M19 4h1"
     id="path10049"
     style="opacity:0.65" />
  <path
     stroke="#5282f6"
     d="M1 5h1M6 11h1M4 12h1"
     id="path10051"
     style="opacity:0.65" />
  <path
     stroke="#799ff8"
     d="M2 5h1"
     id="path10053"
     style="opacity:0.65" />
  <path
     stroke="#7ca1f8"
     d="M3 5h1"
     id="path10055"
     style="opacity:0.65" />
  <path
     stroke="#316bf4"
     d="M16 5h1M3 16h1"
     id="path10057"
     style="opacity:0.65" />
  <path
     stroke="#3069f1"
     d="M17 5h1"
     id="path10059"
     style="opacity:0.65" />
  <path
     stroke="#2c62e4"
     d="M18 5h1"
     id="path10061"
     style="opacity:0.65" />
  <path
     stroke="#1d4cbc"
     d="M19 5h1M19 6h1"
     id="path10063"
     style="opacity:0.65" />
  <path
     stroke="#7099f8"
     d="M3 6h1"
     id="path10065"
     style="opacity:0.65" />
  <path
     stroke="#2d69f5"
     d="M16 6h1"
     id="path10067"
     style="opacity:0.65" />
  <path
     stroke="#2e69f2"
     d="M17 6h1"
     id="path10069"
     style="opacity:0.65" />
  <path
     stroke="#2c63e5"
     d="M18 6h1"
     id="path10071"
     style="opacity:0.65" />
  <path
     stroke="#4679f5"
     d="M1 7h1M1 8h1"
     id="path10073"
     style="opacity:0.65" />
  <path
     stroke="#658ff8"
     d="M4 7h1"
     id="path10075"
     style="opacity:0.65" />
  <path
     stroke="#2a68f5"
     d="M16 7h1"
     id="path10077"
     style="opacity:0.65" />
  <path
     stroke="#2c69f2"
     d="M17 7h1"
     id="path10079"
     style="opacity:0.65" />
  <path
     stroke="#2a62e4"
     d="M18 7h1"
     id="path10081"
     style="opacity:0.65" />
  <path
     stroke="#1c4cbd"
     d="M19 7h1"
     id="path10083"
     style="opacity:0.65" />
  <path
     stroke="#628df8"
     d="M3 8h1"
     id="path10085"
     style="opacity:0.65" />
  <path
     stroke="#608bf7"
     d="M4 8h1"
     id="path10087"
     style="opacity:0.65" />
  <path
     stroke="#5482f7"
     d="M6 8h1"
     id="path10089"
     style="opacity:0.65" />
  <path
     stroke="#4e7cf6"
     d="M7 8h1"
     id="path10091"
     style="opacity:0.65" />
  <path
     stroke="#4778f6"
     d="M8 8h1"
     id="path10093"
     style="opacity:0.65" />
  <path
     stroke="#4174f5"
     d="M9 8h1"
     id="path10095"
     style="opacity:0.65" />
  <path
     stroke="#3a71f5"
     d="M10 8h1"
     id="path10097"
     style="opacity:0.65" />
  <path
     stroke="#346ef4"
     d="M11 8h1"
     id="path10099"
     style="opacity:0.65" />
  <path
     stroke="#2d6bf5"
     d="M12 8h1"
     id="path10101"
     style="opacity:0.65" />
  <path
     stroke="#2869f5"
     d="M13 8h1"
     id="path10103"
     style="opacity:0.65" />
  <path
     stroke="#2467f5"
     d="M14 8h1"
     id="path10105"
     style="opacity:0.65" />
  <path
     stroke="#2567f5"
     d="M16 8h1"
     id="path10107"
     style="opacity:0.65" />
  <path
     stroke="#2968f2"
     d="M17 8h1"
     id="path10109"
     style="opacity:0.65" />
  <path
     stroke="#2963e4"
     d="M18 8h1"
     id="path10111"
     style="opacity:0.65" />
  <path
     stroke="#1b4bbd"
     d="M19 8h1"
     id="path10113"
     style="opacity:0.65" />
  <path
     stroke="#3c72f4"
     d="M1 9h1"
     id="path10115"
     style="opacity:0.65" />
  <path
     stroke="#5d89f7"
     d="M4 9h1"
     id="path10117"
     style="opacity:0.65" />
  <path
     stroke="#5381f6"
     d="M6 9h1"
     id="path10119"
     style="opacity:0.65" />
  <path
     stroke="#4e7ef6"
     d="M7 9h1"
     id="path10121"
     style="opacity:0.65" />
  <path
     stroke="#477af5"
     d="M8 9h1"
     id="path10123"
     style="opacity:0.65" />
  <path
     stroke="#4178f5"
     d="M9 9h1"
     id="path10125"
     style="opacity:0.65" />
  <path
     stroke="#3a74f5"
     d="M10 9h1"
     id="path10127"
     style="opacity:0.65" />
  <path
     stroke="#3472f5"
     d="M11 9h1"
     id="path10129"
     style="opacity:0.65" />
  <path
     stroke="#2c6ff5"
     d="M12 9h1"
     id="path10131"
     style="opacity:0.65" />
  <path
     stroke="#276cf5"
     d="M13 9h1"
     id="path10133"
     style="opacity:0.65" />
  <path
     stroke="#236af6"
     d="M14 9h1"
     id="path10135"
     style="opacity:0.65" />
  <path
     stroke="#2268f5"
     d="M16 9h1"
     id="path10137"
     style="opacity:0.65" />
  <path
     stroke="#2569f2"
     d="M17 9h1"
     id="path10139"
     style="opacity:0.65" />
  <path
     stroke="#2562e6"
     d="M18 9h1"
     id="path10141"
     style="opacity:0.65" />
  <path
     stroke="#194bbe"
     d="M19 9h1"
     id="path10143"
     style="opacity:0.65" />
  <path
     stroke="#376ef4"
     d="M1 10h1"
     id="path10145"
     style="opacity:0.65" />
  <path
     stroke="#5181f6"
     d="M2 10h1"
     id="path10147"
     style="opacity:0.65" />
  <path
     stroke="#5785f7"
     d="M3 10h1"
     id="path10149"
     style="opacity:0.65" />
  <path
     stroke="#5281f6"
     d="M6 10h1"
     id="path10151"
     style="opacity:0.65" />
  <path
     stroke="#477bf6"
     d="M8 10h1"
     id="path10153"
     style="opacity:0.65" />
  <path
     stroke="#4179f6"
     d="M9 10h1"
     id="path10155"
     style="opacity:0.65" />
  <path
     stroke="#3b77f5"
     d="M10 10h1"
     id="path10157"
     style="opacity:0.65" />
  <path
     stroke="#3474f5"
     d="M11 10h1"
     id="path10159"
     style="opacity:0.65" />
  <path
     stroke="#2c72f6"
     d="M12 10h1"
     id="path10161"
     style="opacity:0.65" />
  <path
     stroke="#266ff6"
     d="M13 10h1"
     id="path10163"
     style="opacity:0.65" />
  <path
     stroke="#226df6"
     d="M14 10h1"
     id="path10165"
     style="opacity:0.65" />
  <path
     stroke="#1f6af6"
     d="M16 10h1"
     id="path10167"
     style="opacity:0.65" />
  <path
     stroke="#216af3"
     d="M17 10h1"
     id="path10169"
     style="opacity:0.65" />
  <path
     stroke="#2162e6"
     d="M18 10h1"
     id="path10171"
     style="opacity:0.65" />
  <path
     stroke="#1649be"
     d="M19 10h1"
     id="path10173"
     style="opacity:0.65" />
  <path
     stroke="#326bf4"
     d="M1 11h1"
     id="path10175"
     style="opacity:0.65" />
  <path
     stroke="#4b7df5"
     d="M2 11h1"
     id="path10177"
     style="opacity:0.65" />
  <path
     stroke="#5483f6"
     d="M3 11h1"
     id="path10179"
     style="opacity:0.65" />
  <path
     stroke="#5684f7"
     d="M4 11h1"
     id="path10181"
     style="opacity:0.65" />
  <path
     stroke="#4d80f6"
     d="M7 11h1"
     id="path10183"
     style="opacity:0.65" />
  <path
     stroke="#487df6"
     d="M8 11h1"
     id="path10185"
     style="opacity:0.65" />
  <path
     stroke="#427cf6"
     d="M9 11h1"
     id="path10187"
     style="opacity:0.65" />
  <path
     stroke="#3c7af6"
     d="M10 11h1"
     id="path10189"
     style="opacity:0.65" />
  <path
     stroke="#3478f6"
     d="M11 11h1"
     id="path10191"
     style="opacity:0.65" />
  <path
     stroke="#2d76f6"
     d="M12 11h1"
     id="path10193"
     style="opacity:0.65" />
  <path
     stroke="#2673f7"
     d="M13 11h1"
     id="path10195"
     style="opacity:0.65" />
  <path
     stroke="#2171f7"
     d="M14 11h1"
     id="path10197"
     style="opacity:0.65" />
  <path
     stroke="#1c6df6"
     d="M16 11h1"
     id="path10199"
     style="opacity:0.65" />
  <path
     stroke="#1c6af4"
     d="M17 11h1"
     id="path10201"
     style="opacity:0.65" />
  <path
     stroke="#1c61e6"
     d="M18 11h1"
     id="path10203"
     style="opacity:0.65" />
  <path
     stroke="#1248bf"
     d="M19 11h1"
     id="path10205"
     style="opacity:0.65" />
  <path
     stroke="#2b66f4"
     d="M1 12h1"
     id="path10207"
     style="opacity:0.65" />
  <path
     stroke="#4e7ff6"
     d="M3 12h1"
     id="path10209"
     style="opacity:0.65" />
  <path
     stroke="#5182f6"
     d="M6 12h1"
     id="path10211"
     style="opacity:0.65" />
  <path
     stroke="#4d81f7"
     d="M7 12h1"
     id="path10213"
     style="opacity:0.65" />
  <path
     stroke="#487ff6"
     d="M8 12h1"
     id="path10215"
     style="opacity:0.65" />
  <path
     stroke="#437ff6"
     d="M9 12h1"
     id="path10217"
     style="opacity:0.65" />
  <path
     stroke="#3d7ef6"
     d="M10 12h1"
     id="path10219"
     style="opacity:0.65" />
  <path
     stroke="#357cf6"
     d="M11 12h1"
     id="path10221"
     style="opacity:0.65" />
  <path
     stroke="#2d7af7"
     d="M12 12h1"
     id="path10223"
     style="opacity:0.65" />
  <path
     stroke="#2677f7"
     d="M13 12h1"
     id="path10225"
     style="opacity:0.65" />
  <path
     stroke="#2174f7"
     d="M14 12h1"
     id="path10227"
     style="opacity:0.65" />
  <path
     stroke="#186ef7"
     d="M16 12h1"
     id="path10229"
     style="opacity:0.65" />
  <path
     stroke="#186af4"
     d="M17 12h1"
     id="path10231"
     style="opacity:0.65" />
  <path
     stroke="#165fe7"
     d="M18 12h1"
     id="path10233"
     style="opacity:0.65" />
  <path
     stroke="#0f47c0"
     d="M19 12h1"
     id="path10235"
     style="opacity:0.65" />
  <path
     stroke="#2562f3"
     d="M1 13h1"
     id="path10237"
     style="opacity:0.65" />
  <path
     stroke="#3d73f4"
     d="M2 13h1"
     id="path10239"
     style="opacity:0.65" />
  <path
     stroke="#487bf5"
     d="M3 13h1"
     id="path10241"
     style="opacity:0.65" />
  <path
     stroke="#4e80f6"
     d="M4 13h1"
     id="path10243"
     style="opacity:0.65" />
  <path
     stroke="#4e81f6"
     d="M6 13h1"
     id="path10245"
     style="opacity:0.65" />
  <path
     stroke="#4b80f6"
     d="M7 13h1"
     id="path10247"
     style="opacity:0.65" />
  <path
     stroke="#477ff6"
     d="M8 13h1"
     id="path10249"
     style="opacity:0.65" />
  <path
     stroke="#427ff6"
     d="M9 13h1"
     id="path10251"
     style="opacity:0.65" />
  <path
     stroke="#3c7ff6"
     d="M10 13h1"
     id="path10253"
     style="opacity:0.65" />
  <path
     stroke="#367ff7"
     d="M11 13h1"
     id="path10255"
     style="opacity:0.65" />
  <path
     stroke="#2d7cf7"
     d="M12 13h1"
     id="path10257"
     style="opacity:0.65" />
  <path
     stroke="#2679f8"
     d="M13 13h1"
     id="path10259"
     style="opacity:0.65" />
  <path
     stroke="#2077f7"
     d="M14 13h1"
     id="path10261"
     style="opacity:0.65" />
  <path
     stroke="#166ff7"
     d="M16 13h1"
     id="path10263"
     style="opacity:0.65" />
  <path
     stroke="#1369f4"
     d="M17 13h1"
     id="path10265"
     style="opacity:0.65" />
  <path
     stroke="#105de8"
     d="M18 13h1"
     id="path10267"
     style="opacity:0.65" />
  <path
     stroke="#0a44bf"
     d="M19 13h1"
     id="path10269"
     style="opacity:0.65" />
  <path
     stroke="#1e5df3"
     d="M1 14h1"
     id="path10271"
     style="opacity:0.65" />
  <path
     stroke="#366ef4"
     d="M2 14h1"
     id="path10273"
     style="opacity:0.65" />
  <path
     stroke="#497bf5"
     d="M4 14h1"
     id="path10275"
     style="opacity:0.65" />
  <path
     stroke="#4a7ef7"
     d="M6 14h1"
     id="path10277"
     style="opacity:0.65" />
  <path
     stroke="#487ef6"
     d="M7 14h1"
     id="path10279"
     style="opacity:0.65" />
  <path
     stroke="#457ff6"
     d="M8 14h1"
     id="path10281"
     style="opacity:0.65" />
  <path
     stroke="#4180f6"
     d="M9 14h1"
     id="path10283"
     style="opacity:0.65" />
  <path
     stroke="#3b7ff6"
     d="M10 14h1"
     id="path10285"
     style="opacity:0.65" />
  <path
     stroke="#357ff7"
     d="M11 14h1"
     id="path10287"
     style="opacity:0.65" />
  <path
     stroke="#2d7df7"
     d="M12 14h1"
     id="path10289"
     style="opacity:0.65" />
  <path
     stroke="#257af8"
     d="M13 14h1"
     id="path10291"
     style="opacity:0.65" />
  <path
     stroke="#1e77f8"
     d="M14 14h1"
     id="path10293"
     style="opacity:0.65" />
  <path
     stroke="#116df7"
     d="M16 14h1"
     id="path10295"
     style="opacity:0.65" />
  <path
     stroke="#0d66f4"
     d="M17 14h1M15 17h1"
     id="path10297"
     style="opacity:0.65" />
  <path
     stroke="#0b59e7"
     d="M18 14h1"
     id="path10299"
     style="opacity:0.65" />
  <path
     stroke="#0641c0"
     d="M19 14h1M14 19h1"
     id="path10301"
     style="opacity:0.65" />
  <path
     stroke="#1859f3"
     d="M1 15h1"
     id="path10303"
     style="opacity:0.65" />
  <path
     stroke="#2e68f4"
     d="M2 15h1"
     id="path10305"
     style="opacity:0.65" />
  <path
     stroke="#3a71f4"
     d="M3 15h1"
     id="path10307"
     style="opacity:0.65" />
  <path
     stroke="#4277f5"
     d="M4 15h1"
     id="path10309"
     style="opacity:0.65" />
  <path
     stroke="#0e6cf8"
     d="M16 15h1"
     id="path10311"
     style="opacity:0.65" />
  <path
     stroke="#0963f4"
     d="M17 15h1"
     id="path10313"
     style="opacity:0.65" />
  <path
     stroke="#0556e7"
     d="M18 15h1"
     id="path10315"
     style="opacity:0.65" />
  <path
     stroke="#023fbf"
     d="M19 15h1"
     id="path10317"
     style="opacity:0.65" />
  <path
     stroke="#1456f3"
     d="M1 16h1"
     id="path10319"
     style="opacity:0.65" />
  <path
     stroke="#2562f4"
     d="M2 16h1"
     id="path10321"
     style="opacity:0.65" />
  <path
     stroke="#3971f4"
     d="M4 16h1"
     id="path10323"
     style="opacity:0.65" />
  <path
     stroke="#3d74f5"
     d="M5 16h1"
     id="path10325"
     style="opacity:0.65" />
  <path
     stroke="#3d74f6"
     d="M6 16h1"
     id="path10327"
     style="opacity:0.65" />
  <path
     stroke="#3b75f5"
     d="M7 16h1"
     id="path10329"
     style="opacity:0.65" />
  <path
     stroke="#3976f5"
     d="M8 16h1"
     id="path10331"
     style="opacity:0.65" />
  <path
     stroke="#3777f5"
     d="M9 16h1"
     id="path10333"
     style="opacity:0.65" />
  <path
     stroke="#3278f6"
     d="M10 16h1"
     id="path10335"
     style="opacity:0.65" />
  <path
     stroke="#2c78f7"
     d="M11 16h1"
     id="path10337"
     style="opacity:0.65" />
  <path
     stroke="#2577f7"
     d="M12 16h1"
     id="path10339"
     style="opacity:0.65" />
  <path
     stroke="#1f76f7"
     d="M13 16h1"
     id="path10341"
     style="opacity:0.65" />
  <path
     stroke="#1972f7"
     d="M14 16h1"
     id="path10343"
     style="opacity:0.65" />
  <path
     stroke="#116ef8"
     d="M15 16h1"
     id="path10345"
     style="opacity:0.65" />
  <path
     stroke="#0b68f7"
     d="M16 16h1"
     id="path10347"
     style="opacity:0.65" />
  <path
     stroke="#0560f4"
     d="M17 16h1"
     id="path10349"
     style="opacity:0.65" />
  <path
     stroke="#0253e6"
     d="M18 16h1"
     id="path10351"
     style="opacity:0.65" />
  <path
     stroke="#013dbe"
     d="M19 16h1"
     id="path10353"
     style="opacity:0.65" />
  <path
     stroke="#0e50ed"
     d="M1 17h1"
     id="path10355"
     style="opacity:0.65" />
  <path
     stroke="#1c5bef"
     d="M2 17h1"
     id="path10357"
     style="opacity:0.65" />
  <path
     stroke="#2863f0"
     d="M3 17h1"
     id="path10359"
     style="opacity:0.65" />
  <path
     stroke="#2f68f0"
     d="M4 17h1"
     id="path10361"
     style="opacity:0.65" />
  <path
     stroke="#336bf1"
     d="M5 17h1"
     id="path10363"
     style="opacity:0.65" />
  <path
     stroke="#346cf1"
     d="M6 17h1"
     id="path10365"
     style="opacity:0.65" />
  <path
     stroke="#316cf2"
     d="M7 17h1"
     id="path10367"
     style="opacity:0.65" />
  <path
     stroke="#316df2"
     d="M8 17h1"
     id="path10369"
     style="opacity:0.65" />
  <path
     stroke="#2e6ff2"
     d="M9 17h1"
     id="path10371"
     style="opacity:0.65" />
  <path
     stroke="#2a70f2"
     d="M10 17h1"
     id="path10373"
     style="opacity:0.65" />
  <path
     stroke="#2570f3"
     d="M11 17h1"
     id="path10375"
     style="opacity:0.65" />
  <path
     stroke="#1f6ff3"
     d="M12 17h1"
     id="path10377"
     style="opacity:0.65" />
  <path
     stroke="#196df4"
     d="M13 17h1"
     id="path10379"
     style="opacity:0.65" />
  <path
     stroke="#136af4"
     d="M14 17h1"
     id="path10381"
     style="opacity:0.65" />
  <path
     stroke="#0760f3"
     d="M16 17h1"
     id="path10383"
     style="opacity:0.65" />
  <path
     stroke="#025af0"
     d="M17 17h1"
     id="path10385"
     style="opacity:0.65" />
  <path
     stroke="#004de2"
     d="M18 17h1"
     id="path10387"
     style="opacity:0.65" />
  <path
     stroke="#003ab9"
     d="M19 17h1"
     id="path10389"
     style="opacity:0.65" />
  <path
     stroke="#e5eefd"
     d="M0 18h1"
     id="path10391"
     style="opacity:0.65" />
  <path
     stroke="#285edf"
     d="M1 18h1"
     id="path10393"
     style="opacity:0.65" />
  <path
     stroke="#134fdf"
     d="M2 18h1"
     id="path10395"
     style="opacity:0.65" />
  <path
     stroke="#1b55df"
     d="M3 18h1"
     id="path10397"
     style="opacity:0.65" />
  <path
     stroke="#215ae2"
     d="M4 18h1"
     id="path10399"
     style="opacity:0.65" />
  <path
     stroke="#255ce1"
     d="M5 18h1"
     id="path10401"
     style="opacity:0.65" />
  <path
     stroke="#265de0"
     d="M6 18h1"
     id="path10403"
     style="opacity:0.65" />
  <path
     stroke="#245ce1"
     d="M7 18h1"
     id="path10405"
     style="opacity:0.65" />
  <path
     stroke="#235ee2"
     d="M8 18h1"
     id="path10407"
     style="opacity:0.65" />
  <path
     stroke="#215ee2"
     d="M9 18h1"
     id="path10409"
     style="opacity:0.65" />
  <path
     stroke="#1e5ee2"
     d="M10 18h1"
     id="path10411"
     style="opacity:0.65" />
  <path
     stroke="#1b5fe5"
     d="M11 18h1"
     id="path10413"
     style="opacity:0.65" />
  <path
     stroke="#165ee5"
     d="M12 18h1"
     id="path10415"
     style="opacity:0.65" />
  <path
     stroke="#135de6"
     d="M13 18h1"
     id="path10417"
     style="opacity:0.65" />
  <path
     stroke="#0e5be5"
     d="M14 18h1"
     id="path10419"
     style="opacity:0.65" />
  <path
     stroke="#0958e6"
     d="M15 18h1"
     id="path10421"
     style="opacity:0.65" />
  <path
     stroke="#0454e6"
     d="M16 18h1"
     id="path10423"
     style="opacity:0.65" />
  <path
     stroke="#014ee2"
     d="M17 18h1"
     id="path10425"
     style="opacity:0.65" />
  <path
     stroke="#0045d3"
     d="M18 18h1"
     id="path10427"
     style="opacity:0.65" />
  <path
     stroke="#1f4eb8"
     d="M19 18h1"
     id="path10429"
     style="opacity:0.65" />
  <path
     stroke="#679ef6"
     d="M0 19h1"
     id="path10431"
     style="opacity:0.65" />
  <path
     stroke="#d0daf1"
     d="M1 19h1"
     id="path10433"
     style="opacity:0.65" />
  <path
     stroke="#2856c3"
     d="M2 19h1"
     id="path10435"
     style="opacity:0.65" />
  <path
     stroke="#0d3fb6"
     d="M3 19h1"
     id="path10437"
     style="opacity:0.65" />
  <path
     stroke="#1144bd"
     d="M4 19h1"
     id="path10439"
     style="opacity:0.65" />
  <path
     stroke="#1245bb"
     d="M5 19h1"
     id="path10441"
     style="opacity:0.65" />
  <path
     stroke="#1445b9"
     d="M6 19h1"
     id="path10443"
     style="opacity:0.65" />
  <path
     stroke="#1244b9"
     d="M7 19h1"
     id="path10445"
     style="opacity:0.65" />
  <path
     stroke="#1345bc"
     d="M8 19h1"
     id="path10447"
     style="opacity:0.65" />
  <path
     stroke="#1346bd"
     d="M9 19h1"
     id="path10449"
     style="opacity:0.65" />
  <path
     stroke="#1045be"
     d="M10 19h1"
     id="path10451"
     style="opacity:0.65" />
  <path
     stroke="#0d45c0"
     d="M11 19h1"
     id="path10453"
     style="opacity:0.65" />
  <path
     stroke="#0a45c1"
     d="M12 19h1"
     id="path10455"
     style="opacity:0.65" />
  <path
     stroke="#0844c3"
     d="M13 19h1"
     id="path10457"
     style="opacity:0.65" />
  <path
     stroke="#033fc0"
     d="M15 19h1"
     id="path10459"
     style="opacity:0.65" />
  <path
     stroke="#013fc3"
     d="M16 19h1"
     id="path10461"
     style="opacity:0.65" />
  <path
     stroke="#003bbe"
     d="M17 19h1"
     id="path10463"
     style="opacity:0.65" />
  <path
     stroke="#1f4eb9"
     d="M18 19h1"
     id="path10465"
     style="opacity:0.65" />
  <path
     stroke="#cfd8ed"
     d="M19 19h1"
     id="path10467"
     style="opacity:0.65" />
  <path
     stroke="#669bf5"
     d="M20 19h1M1 20h1"
     id="path10469"
     style="opacity:0.65" />
  <path
     stroke="#e5edfd"
     d="M18 20h1"
     id="path10471"
     style="opacity:0.65" />
  <path
     stroke="#6699f3"
     d="M19 20h1"
     id="path10473"
     style="opacity:0.65" />
</svg>
